<mxfile host="65bd71144e">
    <diagram id="Vgj9HcdxZ2P1pboT8Y_9" name="Page-1">
        <mxGraphModel dx="1093" dy="590" grid="1" gridSize="10" guides="1" tooltips="1" connect="1" arrows="1" fold="1" page="1" pageScale="1" pageWidth="827" pageHeight="1169" math="0" shadow="0">
            <root>
                <mxCell id="0"/>
                <mxCell id="1" parent="0"/>
                <mxCell id="2" value="" style="swimlane;startSize=0;" vertex="1" parent="1">
                    <mxGeometry x="90" y="80" width="640" height="400" as="geometry"/>
                </mxCell>
                <mxCell id="8" value="" style="group" vertex="1" connectable="0" parent="2">
                    <mxGeometry x="90" y="80" width="120" height="160" as="geometry"/>
                </mxCell>
                <mxCell id="4" value="" style="rounded=1;whiteSpace=wrap;html=1;" vertex="1" parent="8">
                    <mxGeometry width="120" height="160" as="geometry"/>
                </mxCell>
                <mxCell id="5" value="-------------------------" style="text;html=1;strokeColor=none;fillColor=none;align=center;verticalAlign=middle;whiteSpace=wrap;rounded=0;fontSize=11;" vertex="1" parent="8">
                    <mxGeometry x="10" y="120" width="100" height="30" as="geometry"/>
                </mxCell>
                <mxCell id="6" value="-------------------------" style="text;html=1;strokeColor=none;fillColor=none;align=center;verticalAlign=middle;whiteSpace=wrap;rounded=0;fontSize=11;" vertex="1" parent="8">
                    <mxGeometry x="10" y="130" width="100" height="30" as="geometry"/>
                </mxCell>
                <mxCell id="7" value="-----------" style="text;html=1;strokeColor=none;fillColor=none;align=left;verticalAlign=middle;whiteSpace=wrap;rounded=0;fontSize=11;" vertex="1" parent="8">
                    <mxGeometry x="10" y="111" width="100" height="30" as="geometry"/>
                </mxCell>
                <mxCell id="9" value="&lt;h1&gt;Description&lt;/h1&gt;&lt;p&gt;Lorem ipsum dolor sit amet, consectetur adipisicing elit, sed do eiusmod tempor incididunt ut labore et dolore magna aliqua.&lt;/p&gt;" style="text;html=1;strokeColor=none;fillColor=none;spacing=5;spacingTop=-20;whiteSpace=wrap;overflow=hidden;rounded=0;align=center;" vertex="1" parent="2">
                    <mxGeometry x="345" y="80" width="190" height="120" as="geometry"/>
                </mxCell>
                <mxCell id="10" value="&lt;b&gt;Author&lt;/b&gt;" style="text;html=1;strokeColor=none;fillColor=none;align=center;verticalAlign=middle;whiteSpace=wrap;rounded=0;" vertex="1" parent="2">
                    <mxGeometry x="340" y="210" width="60" height="30" as="geometry"/>
                </mxCell>
                <mxCell id="11" value="&lt;b&gt;Published On&lt;/b&gt;" style="text;html=1;strokeColor=none;fillColor=none;align=center;verticalAlign=middle;whiteSpace=wrap;rounded=0;" vertex="1" parent="2">
                    <mxGeometry x="345" y="240" width="85" height="30" as="geometry"/>
                </mxCell>
                <mxCell id="12" value="&lt;b&gt;Legends of the nine Tailed Fox&lt;/b&gt;" style="text;html=1;strokeColor=none;fillColor=none;align=center;verticalAlign=middle;whiteSpace=wrap;rounded=0;" vertex="1" parent="2">
                    <mxGeometry x="70" y="260" width="150" height="30" as="geometry"/>
                </mxCell>
                <mxCell id="13" value="genre: Fantasy" style="text;html=1;strokeColor=none;fillColor=none;align=center;verticalAlign=middle;whiteSpace=wrap;rounded=0;" vertex="1" parent="2">
                    <mxGeometry x="70" y="290" width="140" height="30" as="geometry"/>
                </mxCell>
                <mxCell id="15" value="" style="rounded=1;whiteSpace=wrap;html=1;" vertex="1" parent="2">
                    <mxGeometry x="345" y="290" width="175" height="40" as="geometry"/>
                </mxCell>
                <mxCell id="14" value="&lt;b&gt;Â£3.143 / download&lt;/b&gt;" style="text;html=1;strokeColor=none;fillColor=none;align=center;verticalAlign=middle;whiteSpace=wrap;rounded=0;" vertex="1" parent="2">
                    <mxGeometry x="357.5" y="295" width="152.5" height="30" as="geometry"/>
                </mxCell>
                <mxCell id="3" value="container extends layout" style="text;html=1;align=center;verticalAlign=middle;resizable=0;points=[];autosize=1;strokeColor=none;fillColor=none;" vertex="1" parent="1">
                    <mxGeometry x="285" y="90" width="150" height="20" as="geometry"/>
                </mxCell>
            </root>
        </mxGraphModel>
    </diagram>
</mxfile>